<?xml version="1.0" encoding="utf-8"?>
<!-- Generator: Adobe Illustrator 21.0.2, SVG Export Plug-In . SVG Version: 6.00 Build 0)  -->
<svg version="1.1" id="Layer_1" xmlns="http://www.w3.org/2000/svg" xmlns:xlink="http://www.w3.org/1999/xlink" x="0px" y="0px"
	 viewBox="0 0 54 54" style="enable-background:new 0 0 54 54;" xml:space="preserve">
<style type="text/css">
	.st0{fill:url(#SVGID_1_);}
	.st1{fill:url(#SVGID_2_);}
	.st2{fill:url(#SVGID_3_);}
	.st3{fill:url(#SVGID_4_);}
	.st4{fill:url(#SVGID_5_);}
	.st5{fill:url(#SVGID_6_);}
	.st6{fill:url(#SVGID_7_);}
	.st7{opacity:0.34;fill:url(#SVGID_8_);}
	.st8{opacity:0.2;}
	.st9{fill:url(#SVGID_9_);}
	.st10{fill:none;stroke:url(#SVGID_10_);stroke-width:0.3852;stroke-miterlimit:10;}
	.st11{opacity:0.46;fill:url(#SVGID_11_);}
	.st12{opacity:0.46;fill:url(#SVGID_12_);}
	.st13{opacity:0.46;fill:url(#SVGID_13_);}
	.st14{opacity:0.46;fill:url(#SVGID_14_);}
	.st15{opacity:0.46;fill:url(#SVGID_15_);}
	.st16{opacity:0.46;fill:url(#SVGID_16_);}
</style>
<g>
	<g>
		<g>
			<g>
				<defs>
					<path id="XMLID_2_" d="M37.6,22.4c-0.1-0.5-0.2-0.9-0.4-1.3c-1.3-3.1-3.2-7.3-11.1-7.7c-3.5-0.2-5.9,1.3-7.6,3
						c-2.1,2.2-3.1,5.1-3.1,8v0c0,0.5,0.2,2.1,0.5,2.7c0.7,1.3,1.7,2.2,3,2.7l0,0v8.1c0,0.3,0.2,0.6,0.6,0.6h0
						c0.3,0,0.6-0.2,0.6-0.6v-7.5c0-0.2,0.2-0.4,0.4-0.3c0.1,0,0.3,0,0.4,0l0,0c0.2,0,0.3,0.2,0.3,0.3l0,10.2c0,0.3,0.2,0.5,0.5,0.5
						h0c0.3,0,0.6-0.2,0.6-0.6c0-2,0-8.6,0-10.1c0-0.2,0.2-0.3,0.3-0.3c0.1,0,0.2,0,0.3,0c0.2,0,0.3,0.2,0.3,0.3l0,11.4
						c0,0.3,0.2,0.5,0.5,0.5h0c0.3,0,0.6-0.2,0.6-0.6c0-2.1,0-9.3,0-11.2c0-0.3,0.2-0.5,0.5-0.5c0.1,0,0.2,0,0.3,0
						c0.3,0,0.5,0.2,0.5,0.5l0,13.1c0,0.3,0.2,0.5,0.5,0.5h0c0.3,0,0.6-0.2,0.6-0.6c0-2.4,0-11.5,0-13.2c0-0.2,0.1-0.3,0.3-0.3
						c0.1,0,0.2,0,0.3,0c0.2,0,0.3,0.1,0.3,0.3l0,9.6c0,0.3,0.2,0.5,0.5,0.5h0c0.3,0,0.6-0.2,0.6-0.6v-9.4c0-0.3,0.2-0.5,0.5-0.5
						c1-0.1,1.9-0.1,2.8-0.3c0.4-0.1,0.7,0.2,0.7,0.6v3.3c0,0.3,0.2,0.6,0.6,0.6l0,0c0.3,0,0.6-0.2,0.6-0.6v-3.6
						c0-0.4,0.2-0.7,0.6-0.8C38.3,28.2,38,24.2,37.6,22.4z"/>
				</defs>
				<linearGradient id="XMLID_3_" gradientUnits="userSpaceOnUse" x1="19.6136" y1="32.6649" x2="43.9413" y2="12.9441">
					<stop  offset="0" style="stop-color:#FF79E2"/>
					<stop  offset="0.6045" style="stop-color:#8E97FF"/>
				</linearGradient>
				<use xlink:href="#XMLID_2_"  style="overflow:visible;fill:url(#XMLID_3_);"/>
				<clipPath id="XMLID_4_">
					<use xlink:href="#XMLID_2_"  style="overflow:visible;"/>
				</clipPath>
			</g>
			<linearGradient id="SVGID_1_" gradientUnits="userSpaceOnUse" x1="30.9544" y1="29.1981" x2="30.9544" y2="39.3818">
				<stop  offset="0" style="stop-color:#FF79E2"/>
				<stop  offset="1" style="stop-color:#FFC6A4"/>
			</linearGradient>
			<path class="st0" d="M31,41.6L31,41.6c0.3,0,0.6-0.3,0.6-0.6v-9.5c0-0.3-0.2-0.6-0.6-0.6h0c-0.3,0-0.6,0.3-0.6,0.6V41
				C30.4,41.4,30.6,41.6,31,41.6z"/>
			<linearGradient id="SVGID_2_" gradientUnits="userSpaceOnUse" x1="26.8335" y1="41.5715" x2="51.1612" y2="21.8507">
				<stop  offset="0" style="stop-color:#FF79E2"/>
				<stop  offset="0.6045" style="stop-color:#8E97FF"/>
			</linearGradient>
			<path class="st1" d="M33.4,37.2L33.4,37.2c0.3,0,0.6-0.2,0.6-0.6v-0.7c0-0.3-0.2-0.6-0.6-0.6l0,0c-0.3,0-0.6,0.2-0.6,0.6v0.7
				C32.8,37,33.1,37.2,33.4,37.2z"/>
			<linearGradient id="SVGID_3_" gradientUnits="userSpaceOnUse" x1="29.3086" y1="44.6248" x2="53.6363" y2="24.904">
				<stop  offset="0" style="stop-color:#FF79E2"/>
				<stop  offset="0.6045" style="stop-color:#8E97FF"/>
			</linearGradient>
			<path class="st2" d="M31,44.2L31,44.2c0.3,0,0.6-0.2,0.6-0.6v-0.7c0-0.3-0.2-0.6-0.6-0.6h0c-0.3,0-0.6,0.2-0.6,0.6v0.7
				C30.4,44,30.6,44.2,31,44.2z"/>
			<linearGradient id="SVGID_4_" gradientUnits="userSpaceOnUse" x1="19.4972" y1="42.4933" x2="19.4972" y2="39.0184">
				<stop  offset="0" style="stop-color:#FF79E2"/>
				<stop  offset="1" style="stop-color:#FFC6A4"/>
			</linearGradient>
			<path class="st3" d="M19.5,41.3L19.5,41.3c0.3,0,0.6-0.2,0.6-0.6V40c0-0.3-0.2-0.6-0.6-0.6h0c-0.3,0-0.6,0.2-0.6,0.6v0.7
				C18.9,41,19.2,41.3,19.5,41.3z"/>
			<linearGradient id="SVGID_5_" gradientUnits="userSpaceOnUse" x1="33.3519" y1="41.8065" x2="33.3519" y2="35.0174">
				<stop  offset="0" style="stop-color:#FF79E2"/>
				<stop  offset="1" style="stop-color:#FFC6A4"/>
			</linearGradient>
			<path class="st4" d="M33.4,39.6L33.4,39.6c0.3,0,0.6-0.2,0.6-0.5v-0.7c0-0.3-0.2-0.5-0.6-0.5l0,0c-0.3,0-0.6,0.2-0.6,0.5V39
				C32.8,39.3,33,39.6,33.4,39.6z"/>
		</g>
		<linearGradient id="SVGID_6_" gradientUnits="userSpaceOnUse" x1="22.5683" y1="26.8139" x2="35.9849" y2="14.448">
			<stop  offset="0" style="stop-color:#FF79E2"/>
			<stop  offset="0.6045" style="stop-color:#8E97FF"/>
			<stop  offset="0.9996" style="stop-color:#8DA9FF"/>
		</linearGradient>
		<path class="st5" d="M20.2,28.9h11.2c2.9,0,5.2-2.5,4.9-5.4c0-0.1,0-0.2,0-0.3c0,0,0-4.7-6.1-7.9c0,0-6-2.8-10.9,2.7
			S18.8,28.9,20.2,28.9z"/>
		<linearGradient id="SVGID_7_" gradientUnits="userSpaceOnUse" x1="24.3188" y1="25.8702" x2="32.6213" y2="16.0428">
			<stop  offset="0" style="stop-color:#FF79E2"/>
			<stop  offset="0.4872" style="stop-color:#8E97FF"/>
			<stop  offset="0.6205" style="stop-color:#919AFF"/>
			<stop  offset="0.7116" style="stop-color:#9AA2FF"/>
			<stop  offset="0.7901" style="stop-color:#A9B0FF"/>
			<stop  offset="0.8614" style="stop-color:#BFC4FF"/>
			<stop  offset="0.9276" style="stop-color:#DBDDFF"/>
			<stop  offset="0.9897" style="stop-color:#FCFDFF"/>
			<stop  offset="0.994" style="stop-color:#FFFFFF"/>
		</linearGradient>
		<path class="st6" d="M22,27h9.1c2.3,0,4.2-2.1,3.9-4.4c0-0.1,0-0.1,0-0.2c0,0,0-3.9-5-6.5c0,0-4.8-2.3-8.8,2.2S20.9,27,22,27z"/>
		<g>
			<linearGradient id="SVGID_8_" gradientUnits="userSpaceOnUse" x1="19.6811" y1="25.4756" x2="34.3528" y2="11.9528">
				<stop  offset="0" style="stop-color:#FF79E2"/>
				<stop  offset="0.6045" style="stop-color:#8E97FF"/>
			</linearGradient>
			<path class="st7" d="M24.1,17.2c1.3-1.7,3.1-2.7,4.5-3.3c-1.4-0.6-6.8-2-10.9,3.3c-4.9,6.3-0.5,12.3,0.9,12.3l7,0.8
				C24.2,30.4,19.2,23.5,24.1,17.2z"/>
		</g>
		<g class="st8">
			<linearGradient id="SVGID_9_" gradientUnits="userSpaceOnUse" x1="18.1875" y1="35.1909" x2="34.7912" y2="15.5375">
				<stop  offset="0" style="stop-color:#FF79E2"/>
				<stop  offset="0.4872" style="stop-color:#8E97FF"/>
				<stop  offset="0.6205" style="stop-color:#919AFF"/>
				<stop  offset="0.7116" style="stop-color:#9AA2FF"/>
				<stop  offset="0.7901" style="stop-color:#A9B0FF"/>
				<stop  offset="0.8614" style="stop-color:#BFC4FF"/>
				<stop  offset="0.9276" style="stop-color:#DBDDFF"/>
				<stop  offset="0.9897" style="stop-color:#FCFDFF"/>
				<stop  offset="0.994" style="stop-color:#FFFFFF"/>
			</linearGradient>
			<path class="st9" d="M40,25.5c0-0.1,0-0.3,0-0.4c0,0,0-7.2-8.6-12c0,0-8.4-4.3-15.2,4.1c-5.5,6.7-2.6,13.7-0.2,16.1
				c0.1,0.1,0.2,0.1,0.3,0c0.3-0.3,0.7-0.7,1.1-0.5c0.1,0,0.2,0.1,0.3,0.1c0.3,0,0.4-0.5,0.7-0.7c0.3-0.2,0.7,0.2,0.9,0.5
				c0.1,0.2,0.2,0.3,0.4,0.4c0.4,0.2,0.6-0.2,0.9-0.4c0.2-0.2,0.4-0.4,0.6-0.3c0.3,0.1,0.3,0.5,0.6,0.7c0.5,0.2,0.8-0.9,1.3-0.7
				c0.3,0.1,0.3,0.5,0.5,0.7c0.3,0.3,0.7,0.1,1-0.2c0.2-0.3,0.3-0.7,0.5-1c0.1-0.2,0.2-0.4,0.5-0.4c0.2,0,0.4,0.1,0.5,0.3
				c0.3,0.4,0.2,1,0.6,1.4c0.1,0.1,0.3,0.2,0.4,0.2c0.6,0,0.7-0.8,1.2-0.8c0.4-0.1,0.8,0.6,1.2,0.5c0.4,0,0.6-0.5,0.9-0.8
				c0.3-0.2,0.7-0.3,1-0.1c0.3,0.2,0.5,0.5,0.5,0.9c0.4-0.2,0.9-0.3,1.3-0.5c0.4-0.1,0.9-0.3,1.4-0.1c0.4,0.2,0.6,0.6,0.7,1l0,0
				c0.2,0.6,0.8,0.8,1.3,0.5C38.8,32.3,40.3,28.7,40,25.5z"/>
		</g>
		<g>
			<linearGradient id="SVGID_10_" gradientUnits="userSpaceOnUse" x1="18.0124" y1="35.338" x2="34.8647" y2="15.3904">
				<stop  offset="0" style="stop-color:#FF79E2"/>
				<stop  offset="0.4872" style="stop-color:#8E97FF"/>
			</linearGradient>
			<path class="st10" d="M39.9,25.5c0-0.1,0-0.3,0-0.4c0,0,0-7.2-8.6-12c0,0-8.4-4.3-15.2,4.1c-5.5,6.7-2.6,13.7-0.2,16.1
				c0.1,0.1,0.2,0.1,0.3,0c0.3-0.3,0.7-0.7,1.1-0.5c0.1,0,0.2,0.1,0.3,0.1c0.3,0,0.4-0.5,0.7-0.7c0.3-0.2,0.7,0.2,0.9,0.5
				c0.1,0.2,0.2,0.3,0.4,0.4c0.4,0.2,0.6-0.2,0.9-0.4c0.2-0.2,0.4-0.4,0.6-0.3c0.3,0.1,0.3,0.5,0.6,0.7c0.5,0.2,0.8-0.9,1.3-0.7
				c0.3,0.1,0.3,0.5,0.5,0.7c0.3,0.3,0.7,0.1,1-0.2c0.2-0.3,0.3-0.7,0.5-1c0.1-0.2,0.2-0.4,0.5-0.4c0.2,0,0.4,0.1,0.5,0.3
				c0.3,0.4,0.2,1,0.6,1.4c0.1,0.1,0.3,0.2,0.4,0.2c0.6,0,0.7-0.8,1.2-0.8c0.4-0.1,0.8,0.6,1.2,0.5c0.4,0,0.6-0.5,0.9-0.8
				c0.3-0.2,0.7-0.3,1-0.1c0.3,0.2,0.5,0.5,0.5,0.9c0.4-0.2,0.9-0.3,1.3-0.5c0.4-0.1,0.9-0.3,1.4-0.1c0.4,0.2,0.6,0.6,0.7,1l0,0
				c0.2,0.6,0.8,0.8,1.3,0.5C38.7,32.3,40.2,28.7,39.9,25.5z"/>
		</g>
	</g>
	<linearGradient id="SVGID_11_" gradientUnits="userSpaceOnUse" x1="17.6913" y1="20.1844" x2="20.253" y2="20.1844">
		<stop  offset="0" style="stop-color:#FF79E2"/>
		<stop  offset="1" style="stop-color:#FFC6A4"/>
	</linearGradient>
	<circle class="st11" cx="19" cy="20.2" r="1.3"/>
	<linearGradient id="SVGID_12_" gradientUnits="userSpaceOnUse" x1="20.3598" y1="22.426" x2="22.0676" y2="22.426">
		<stop  offset="0" style="stop-color:#FF79E2"/>
		<stop  offset="1" style="stop-color:#FFC6A4"/>
	</linearGradient>
	<circle class="st12" cx="21.2" cy="22.4" r="0.9"/>
	<linearGradient id="SVGID_13_" gradientUnits="userSpaceOnUse" x1="16.8373" y1="23.2799" x2="18.5452" y2="23.2799">
		<stop  offset="0" style="stop-color:#FF79E2"/>
		<stop  offset="1" style="stop-color:#FFC6A4"/>
	</linearGradient>
	<circle class="st13" cx="17.7" cy="23.3" r="0.9"/>
	<linearGradient id="SVGID_14_" gradientUnits="userSpaceOnUse" x1="34.236" y1="24.881" x2="36.7978" y2="24.881">
		<stop  offset="0" style="stop-color:#FF79E2"/>
		<stop  offset="1" style="stop-color:#FFC6A4"/>
	</linearGradient>
	<circle class="st14" cx="35.5" cy="24.9" r="1.3"/>
	<linearGradient id="SVGID_15_" gradientUnits="userSpaceOnUse" x1="36.9045" y1="27.1225" x2="38.6124" y2="27.1225">
		<stop  offset="0" style="stop-color:#FF79E2"/>
		<stop  offset="1" style="stop-color:#FFC6A4"/>
	</linearGradient>
	<circle class="st15" cx="37.8" cy="27.1" r="0.9"/>
	<linearGradient id="SVGID_16_" gradientUnits="userSpaceOnUse" x1="33.3821" y1="27.9765" x2="35.0899" y2="27.9765">
		<stop  offset="0" style="stop-color:#FF79E2"/>
		<stop  offset="1" style="stop-color:#FFC6A4"/>
	</linearGradient>
	<circle class="st16" cx="34.2" cy="28" r="0.9"/>
</g>
</svg>
